<?xml version="1.0" encoding="utf-8"?>
<!-- Generator: Adobe Illustrator 27.6.1, SVG Export Plug-In . SVG Version: 6.00 Build 0)  -->
<svg version="1.1" id="Слой_1" xmlns="http://www.w3.org/2000/svg" xmlns:xlink="http://www.w3.org/1999/xlink" x="0px" y="0px"
	 viewBox="0 0 1080 1080" style="enable-background:new 0 0 1080 1080;" xml:space="preserve">
<style type="text/css">
	.st0{fill:url(#SVGID_1_);}
	.st1{fill:url(#SVGID_00000066501722061572053490000006544634193560695218_);}
	.st2{fill:none;}
	.st3{fill:url(#SVGID_00000161592197488239881250000011692722544821634236_);}
	.st4{fill:url(#SVGID_00000160888832798232233520000004653628054169386910_);}
	.st5{fill:url(#SVGID_00000094578094482830263710000014318233996573767834_);}
	.st6{fill:url(#SVGID_00000021097390290487854520000009282573483764109756_);}
</style>
<g>
	<linearGradient id="SVGID_1_" gradientUnits="userSpaceOnUse" x1="199.824" y1="651.8546" x2="748.7558" y2="102.9228">
		<stop  offset="0" style="stop-color:#22B573"/>
		<stop  offset="0.9986" style="stop-color:#1B1464"/>
	</linearGradient>
	<path class="st0" d="M580.98,381.44L479.72,280.18c39.58-89.33,129.12-151.82,232.94-151.82c18.05,0,35.67,1.89,52.68,5.5
		c-30.41,24-49.92,61.21-49.92,102.97c0,4.92,0.27,9.81,0.8,14.59c-1.2-0.03-2.37-0.05-3.56-0.05
		C640.57,251.37,581.86,309.57,580.98,381.44z"/>
	
		<linearGradient id="SVGID_00000181071659072985118270000005217303293310351752_" gradientUnits="userSpaceOnUse" x1="250.4538" y1="702.4844" x2="799.3856" y2="153.5526">
		<stop  offset="0" style="stop-color:#22B573"/>
		<stop  offset="0.9986" style="stop-color:#1B1464"/>
	</linearGradient>
	<path style="fill:url(#SVGID_00000181071659072985118270000005217303293310351752_);" d="M967.36,383.07
		c0,140.44-114.26,254.68-254.71,254.68c-68.02,0-131.99-26.5-180.07-74.61l-50.61-50.58l-75.27-75.27l-55.26-55.26l-0.48,0.48
		c-14.49-14.51-33.76-22.57-54.27-22.67c-0.16-0.03-0.35-0.03-0.51-0.03c-0.29,0-0.58,0-0.88,0.03c-0.29,0-0.58,0-0.9,0.03
		c-0.85,0-1.7,0.03-2.55,0.08c-75.11,3.03-135.05,64.85-135.05,140.71c0,58.63,35.83,108.89,86.81,130.08
		C158.51,607.61,95.73,529.65,95.73,437.29c0-110.52,89.94-200.46,200.46-200.46c53.56,0,103.9,20.86,141.75,58.71l0.48-0.48l88,88
		l22.03,22.03l71.1,71.1c24.85,24.88,57.94,38.57,93.11,38.57c72.64,0,131.73-59.09,131.73-131.7c0-5.1-0.29-10.15-0.88-15.1
		c1.04,0.05,2.07,0.05,3.11,0.05c45.88,0,86.25-23.52,109.69-59.19C963.51,332.33,967.36,357.26,967.36,383.07z"/>
</g>
<line class="st2" x1="548.46" y1="405.1" x2="526.41" y2="383.05"/>
<g>
	<path d="M175.95,771.06v28.08H95.73V671.51h79.31v28.08H124.9v21.15h45.58v27.71H124.9v22.61H175.95z"/>
	<path d="M301.77,671.51v127.63h-21.88l-49.23-69.28v69.28h-29.17V671.51h21.88l49.23,69.28v-69.28H301.77z"/>
	<path d="M321.83,671.51h31.91l28.26,93.9l28.26-93.9h31.91L400.6,799.14h-37.2L321.83,671.51z"/>
	<path d="M491.41,671.51v127.63h-29.17V671.51H491.41z"/>
	<path d="M597.16,771.06v28.08h-74.76V671.51h29.17v99.55H597.16z"/>
	<path d="M606.28,735.32c0-37.56,29.72-66.37,66.37-66.37c36.65,0,66.37,28.81,66.37,66.37c0,37.56-29.72,66.37-66.37,66.37
		C636,801.69,606.28,772.88,606.28,735.32z M709.85,735.32c0-22.79-16.41-37.92-37.2-37.92c-20.79,0-37.2,15.13-37.2,37.92
		c0,22.79,16.41,37.92,37.2,37.92C693.44,773.25,709.85,758.11,709.85,735.32z"/>
	<path d="M762.73,757.93v-86.42h29.17v83.87c0,9.66,4.56,17.87,20.06,17.87c15.5,0,20.06-8.2,20.06-17.87v-83.87h29.17v86.42
		c0,27.35-21.15,43.76-49.23,43.76C783.88,801.69,762.73,785.28,762.73,757.93z"/>
	<path d="M984.27,715.27c0,24.25-19.51,43.76-44.67,43.76h-19.15v40.11h-29.17V671.51h48.32
		C964.76,671.51,984.27,691.02,984.27,715.27z M955.1,715.27c0-9.3-6.56-16.41-15.5-16.41h-19.15v32.82h19.15
		C948.54,731.68,955.1,724.57,955.1,715.27z"/>
</g>
<linearGradient id="SVGID_00000158743521215888055690000003546122167134812311_" gradientUnits="userSpaceOnUse" x1="912.0601" y1="171.3935" x2="392.803" y2="690.6505">
	<stop  offset="0" style="stop-color:#22B573"/>
	<stop  offset="0.9986" style="stop-color:#1B1464"/>
</linearGradient>
<circle style="fill:url(#SVGID_00000158743521215888055690000003546122167134812311_);" cx="846.62" cy="236.83" r="89.47"/>
<linearGradient id="SVGID_00000023986310462391072570000001640969877985119653_" gradientUnits="userSpaceOnUse" x1="156.8074" y1="498.8442" x2="464.008" y2="498.8442">
	<stop  offset="1.436121e-03" style="stop-color:#1B1464"/>
	<stop  offset="1" style="stop-color:#22B573"/>
</linearGradient>
<path style="fill:url(#SVGID_00000023986310462391072570000001640969877985119653_);" d="M464.01,546.85
	c-24.88,38.01-62.33,67.06-106.4,81.25c-19.38,6.27-40,9.65-61.42,9.65c-18.18,0-35.8-2.45-52.57-7.02
	c-50.98-21.18-86.81-71.44-86.81-130.08c0-75.86,59.94-137.68,135.05-140.71c-40.69,2.23-73.15,36.09-73.15,77.35
	c0,42.71,34.77,77.48,77.48,77.48c36.79,0,67.67-25.78,75.54-60.2l65.41,65.41L464.01,546.85z"/>
<path class="st2" d="M296.19,637.75c21.42,0,42.05-3.38,61.42-9.65c-18.18,8.58-38.51,13.37-59.96,13.37
	c-19.16,0-37.4-3.83-54.04-10.74C260.39,635.3,278.01,637.75,296.19,637.75z"/>
</svg>
